<?xml version="1.0" encoding="utf-8"?>
<!-- Generator: Adobe Illustrator 24.3.0, SVG Export Plug-In . SVG Version: 6.00 Build 0)  -->
<svg version="1.1" id="Layer_1" xmlns="http://www.w3.org/2000/svg" xmlns:xlink="http://www.w3.org/1999/xlink" x="0px" y="0px"
	 viewBox="0 0 535 675" style="enable-background:new 0 0 535 675;" xml:space="preserve">
<style type="text/css">
	.st0{clip-path:url(#SVGID_2_);fill:#E6F4F4;}
	.st1{fill:#3F3D56;}
	.st2{fill:#2FB261;}
	.st3{fill:#E6E6E6;}
	.st4{fill:#FF6584;}
	.st5{fill:#FFB6B6;}
	.st6{fill:#2F2E41;}
</style>
<g>
	<g>
		<g>
			<defs>
				<rect id="SVGID_1_" y="3.06" width="535" height="675"/>
			</defs>
			<clipPath id="SVGID_2_">
				<use xlink:href="#SVGID_1_"  style="overflow:visible;"/>
			</clipPath>
			<path class="st0" d="M437.09,423c0,145.52-79.5,179.98-190.58,179.98s-143.36-3.43-143.36-148.95S-40.8,55.71,70.27,55.71
				S437.09,277.49,437.09,423z"/>
		</g>
	</g>
</g>
<path class="st1" d="M338.35,232.12H106.79c-0.4,0-0.72-0.32-0.72-0.72V120.41c0-0.4,0.33-0.72,0.73-0.72s0.72,0.32,0.72,0.72
	v110.26h230.83c0.4,0,0.73,0.32,0.73,0.72C339.08,231.79,338.75,232.12,338.35,232.12L338.35,232.12L338.35,232.12z"/>
<g>
	<path class="st2" d="M156.27,224.15h-21.06c-1.19,0-2.15-0.96-2.15-2.15v-29.03c0-1.19,0.96-2.15,2.15-2.15h21.06
		c1.19,0,2.15,0.96,2.15,2.15V222C158.42,223.19,157.45,224.15,156.27,224.15z"/>
	<path class="st2" d="M194.67,224.15h-21.06c-1.19,0-2.15-0.96-2.15-2.15v-56.57c0-1.19,0.96-2.15,2.15-2.15h21.06
		c1.19,0,2.15,0.96,2.15,2.15V222C196.82,223.19,195.86,224.15,194.67,224.15z"/>
	<path class="st2" d="M233.08,224.15h-21.06c-1.19,0-2.15-0.96-2.15-2.15v-29.03c0-1.19,0.96-2.15,2.15-2.15h21.06
		c1.19,0,2.15,0.96,2.15,2.15V222C235.23,223.19,234.27,224.15,233.08,224.15z"/>
	<path class="st2" d="M271.49,224.15h-21.06c-1.16,0.02-2.12-0.89-2.15-2.05v-67.63c0.03-1.16,0.99-2.08,2.15-2.05h21.06
		c1.16-0.02,2.12,0.89,2.15,2.05v67.63C273.61,223.26,272.65,224.17,271.49,224.15z"/>
	<path class="st2" d="M309.89,224.15h-21.06c-1.19,0-2.15-0.96-2.15-2.15v-87c0-1.19,0.96-2.15,2.15-2.15h21.06
		c1.19,0,2.15,0.96,2.15,2.15v87C312.04,223.19,311.08,224.15,309.89,224.15z"/>
	<circle class="st1" cx="145.74" cy="177.77" r="4.35"/>
	<circle class="st1" cx="184.14" cy="149.51" r="4.35"/>
	<circle class="st1" cx="222.55" cy="177.77" r="4.35"/>
	<circle class="st1" cx="260.96" cy="135.74" r="4.35"/>
	<circle class="st1" cx="299.36" cy="119.8" r="4.35"/>
	<polygon class="st1" points="222.64,178.75 184.14,149.91 146.17,178.35 145.3,177.19 184.14,148.1 222.46,176.8 260.53,135.13 
		260.69,135.07 299.09,119.59 299.63,120.94 261.38,136.35 	"/>
</g>
<g>
	
		<ellipse transform="matrix(0.9997 -0.0256 0.0256 0.9997 -14.3017 6.2656)" class="st3" cx="237.57" cy="561.72" rx="7.56" ry="1.23"/>
	
		<ellipse transform="matrix(0.9997 -0.0256 0.0256 0.9997 -14.1841 7.4903)" class="st1" cx="285.46" cy="557.74" rx="7.56" ry="1.23"/>
	
		<ellipse transform="matrix(0.9997 -0.0256 0.0256 0.9997 -14.0968 5.7696)" class="st4" cx="218.3" cy="553.47" rx="7.56" ry="1.23"/>
	
		<ellipse transform="matrix(0.0113 -0.9999 0.9999 0.0113 -354.2267 743.7094)" class="st3" cx="198.97" cy="550.98" rx="1.1" ry="3.36"/>
	
		<ellipse transform="matrix(0.0113 -0.9999 0.9999 0.0113 -359.3488 725.6172)" class="st1" cx="187.26" cy="544.53" rx="1.1" ry="3.36"/>
	
		<ellipse transform="matrix(0.0113 -0.9999 0.9999 0.0113 -305.1991 798.0116)" class="st3" cx="250.94" cy="553.34" rx="1.1" ry="3.36"/>
	
		<ellipse transform="matrix(0.0113 -0.9999 0.9999 0.0113 -330.7444 780.3607)" class="st4" cx="229.24" cy="557.43" rx="1.1" ry="3.36"/>
	
		<ellipse transform="matrix(0.0113 -0.9999 0.9999 0.0113 -298.2024 819.3333)" class="st1" cx="265.22" cy="560.46" rx="1.1" ry="3.36"/>
</g>
<g>
	
		<ellipse transform="matrix(0.9997 -0.0256 0.0256 0.9997 -14.0971 9.8865)" class="st3" cx="379.09" cy="555.54" rx="7.56" ry="1.23"/>
	
		<ellipse transform="matrix(0.9997 -0.0256 0.0256 0.9997 -13.9792 11.1109)" class="st1" cx="426.97" cy="551.55" rx="7.56" ry="1.23"/>
	
		<ellipse transform="matrix(0.9997 -0.0256 0.0256 0.9997 -13.8924 9.3902)" class="st4" cx="359.81" cy="547.29" rx="7.56" ry="1.23"/>
	
		<ellipse transform="matrix(0.0113 -0.9999 0.9999 0.0113 -208.1479 879.1063)" class="st3" cx="340.47" cy="544.81" rx="1.1" ry="3.36"/>
	
		<ellipse transform="matrix(0.0113 -0.9999 0.9999 0.0113 -213.2697 860.9943)" class="st1" cx="328.75" cy="538.34" rx="1.1" ry="3.36"/>
	
		<ellipse transform="matrix(0.0113 -0.9999 0.9999 0.0113 -159.1111 933.4185)" class="st3" cx="392.46" cy="547.17" rx="1.1" ry="3.36"/>
	
		<ellipse transform="matrix(0.0113 -0.9999 0.9999 0.0113 -184.6557 915.7479)" class="st4" cx="370.75" cy="551.25" rx="1.1" ry="3.36"/>
	
		<ellipse transform="matrix(0.0113 -0.9999 0.9999 0.0113 -152.1137 954.7202)" class="st1" cx="406.73" cy="554.28" rx="1.1" ry="3.36"/>
</g>
<path class="st2" d="M387.11,500.75c2.91,0.19,4.52-3.6,2.32-5.81l-0.22-0.91c0.03-0.07,0.06-0.15,0.09-0.22
	c2.95-7.36,12.93-7.31,15.85,0.06c2.59,6.54,5.89,13.1,6.71,20.02c0.36,3.05,0.2,6.17-0.45,9.16c6.07-13.91,9.27-29.09,9.27-44.36
	c0-3.84-0.2-7.67-0.61-11.5c-0.34-3.13-0.8-6.24-1.4-9.32c-3.25-16.66-10.29-32.54-20.44-45.79c-4.88-2.8-8.95-7.17-11.41-12.41
	c-0.88-1.89-1.58-3.92-1.9-5.99c0.56,0.08,2.09-8.79,1.68-9.33c0.77-1.23,2.16-1.84,3.01-3.04c4.2-5.97,10-4.93,13.02,3.19
	c6.46,3.42,6.52,9.08,2.56,14.54c-2.52,3.47-2.87,8.16-5.08,11.87c0.23,0.31,0.46,0.6,0.69,0.91c4.17,5.61,7.79,11.64,10.83,17.98
	c-0.86-7.04,0.41-15.53,2.58-21c2.46-6.23,7.08-11.48,11.15-16.87c4.89-6.47,14.91-3.65,15.77,4.56c0.01,0.08,0.02,0.16,0.02,0.24
	c-0.6,0.36-1.2,0.74-1.77,1.14c-3.3,2.29-2.16,7.65,1.75,8.28l0.09,0.01c-0.22,2.28-0.59,4.54-1.14,6.77
	c5.22,21.15-6.05,28.86-22.14,29.2c-0.36,0.19-0.7,0.38-1.06,0.56c1.63,4.81,2.93,9.74,3.9,14.75c0.87,4.42,1.47,8.89,1.8,13.37
	c0.42,5.66,0.38,11.35-0.07,17l0.03-0.2c1.16-6.22,4.38-12.03,9.06-16.06c6.97-6,16.82-8.21,24.35-13.04
	c3.62-2.32,8.26,0.68,7.63,5.08c-0.01,0.07-0.02,0.14-0.03,0.21c-1.12,0.48-2.21,1.03-3.27,1.65c-0.6,0.36-1.2,0.74-1.77,1.14
	c-3.3,2.29-2.16,7.65,1.75,8.28l0.09,0.01c0.06,0.01,0.12,0.02,0.18,0.03c-1.92,4.78-4.6,9.22-7.95,13.05
	c-3.26,18.47-17.28,20.22-32.27,14.84h-0.01c-1.64,7.48-4.03,14.79-7.11,21.76h-25.41c-0.09-0.3-0.17-0.6-0.26-0.9
	c2.35,0.15,4.72,0.01,7.03-0.44c-1.89-2.42-3.77-4.87-5.66-7.29c-0.05-0.05-0.08-0.1-0.12-0.14c-0.96-1.24-1.92-2.47-2.88-3.71l0,0
	C385.81,508.23,386.24,504.43,387.11,500.75L387.11,500.75L387.11,500.75z"/>
<g>
	<circle class="st3" cx="370.48" cy="91.01" r="4.5"/>
	<circle class="st3" cx="384.48" cy="91.01" r="4.5"/>
	<circle class="st3" cx="398.48" cy="91.01" r="4.5"/>
</g>
<path class="st5" d="M337.04,342.84l-3.06-47.34c-0.28-4.17-3.86-7.35-8.03-7.13l0,0c-4.38,0.23-7.68,4.08-7.22,8.45l4.68,49.07
	l1.59,29.94c-2.33,1.14-3.88,3.59-3.74,6.34c0.19,3.68,3.33,6.51,7.01,6.32s6.51-3.33,6.32-7.01c-0.07-1.34-0.54-2.57-1.27-3.58
	L337.04,342.84L337.04,342.84z"/>
<path class="st2" d="M338.96,338.92L338.96,338.92c0.7-0.74,0.77-1.85,0.25-2.73c-0.31-0.52-0.46-1.13-0.41-1.74
	c0.01-0.12,0.03-28.23,0.05-28.35c0.32-1.42,0.02-2.89-0.95-3.97c-1.56-1.74-2.38-4.44-2.78-6.85c-0.44-2.64-0.74-5.35-1.8-7.81
	c-1.53-3.55-4.98-6.64-9.47-4.94c-1.91,0.72-3.47,2.16-4.49,3.92c-2.14,3.7-2.01,8.08-1.84,12.27l-0.88-1.63
	c0.26,4.56-0.4,9.16-1.95,13.45c1.01-0.23,1.77,29.1,1.48,30.1c-0.29,0.99-1.18,1.67-1.93,2.38c-0.95,0.89-1.83,2.2-0.86,3.49
	c0.46,0.62,1.21,0.97,1.97,1.04c7.2,0.68,14.53-0.15,21.4-2.42c1.53-0.51,3.16-1.19,3.92-2.61S340.57,338.84,338.96,338.92
	L338.96,338.92z"/>
<g>
	<polygon class="st5" points="271.53,515.66 264.74,518.33 251,492.79 261.03,488.86 	"/>
	<path class="st6" d="M254.16,535.15c0.66,1.68,2.55,2.5,4.23,1.85l13.51-5.3l0.44-5.73l2.8,4.46l5.1-2l-8.16-16.62l-1.82,0.59
		l-7.41,2.4l-2.39,0.78l1.91,4.86l-7.87,11.68C253.89,533.03,253.77,534.15,254.16,535.15L254.16,535.15z"/>
</g>
<g>
	<polygon class="st5" points="340.9,580.52 333.6,580.67 329.53,551.96 340.31,551.73 	"/>
	<path class="st6" d="M317.86,592.8c0.04,1.8,1.53,3.23,3.33,3.2l14.51-0.3l2.39-5.22l1.08,5.15l5.48-0.11l-1.92-18.42l-1.91-0.07
		l-7.78-0.31l-2.51-0.09l0.11,5.22l-11.42,8.25C318.35,590.72,317.84,591.73,317.86,592.8L317.86,592.8z"/>
</g>
<path class="st6" d="M281.79,342.27l48.01,8.38l-1.81,9.03c0,0,3.01,3.79,1.81,5.21s-3.61-0.99-1.2,1.42s3.18,3.06-0.43,6.67
	s2.21-2.16,2.21-2.16s0.28,6.65,1.68,8.73c9.69,14.44,7.09,27.35,2.14,44.01c-2.8,9.43,2.97,27.61,2.97,30.93l-0.57,23.27
	c0,0,12.65,51.19,6.02,75.28l0.94,9.27l-15.39,0.37l-18.07-72.26c0,0-2.83-7.24-2.92-9.94s-0.09-0.29-0.09-2.7s-0.6-4.82-0.6-5.42
	s-4.82-59.49-4.82-59.49s-17.67,9.75-19.48,11.56s-5.02,0.15-5,2s-1.66,2.52-3,4s-3.55-1.51-2.35,2.71
	c1.2,4.22-15.99,10.62-17.8,12.43s14.15,14.86,12.15,39.86l-1,10l-13,6l-27.76-51.72c-2.87-6.2-1.89-13.5,2.51-18.72l39.25-46.55
	c0,0,4.77-22.87,8.98-25.28L281.79,342.27L281.79,342.27z"/>
<path class="st2" d="M327.31,345.57c0.42-1.8-3.06-14.18-1.58-18.56c0.97-2.87,3.3-4.98,3.27-8.39c0-0.22-0.01-0.45-0.04-0.69
	c-0.01-0.12-0.04-0.25-0.06-0.37c3.01-10.73,4.52-30.69,4.52-30.69L319,269.67c-0.01-0.07-0.02-0.15-0.03-0.22
	c-0.3-2.54-2.44-0.7-4.79-2.03c-1.05-0.59-0.5-5.42-1.71-5.08c-0.04,0.01-0.08,0.03-0.12,0.04l-0.04-0.04l-2.38-2.56l-13.09-1.2
	l-3.04,4.15v0.03c-2.59,0.48-3.26,0.76-3.65,3.64c-0.07,0.54-0.12,1.08-0.14,1.63c-0.09,2.05-10.8,4.11-10.31,6.05l-3.52,2.35
	c0,0-13.22,16.48-8.4,21.3c1.83,1.83,2.79,4.87,3.18,8.18c0.01,0.11,0.04,0.21,0.06,0.32c-0.55,1.77-1.32,4.78-0.06,5.43
	c2.24,1.16,7.07,34.81,1.97,37.21c-12.09,5.69,20.34,16.89,33.24,17.57c3.78,0.2,8.29-0.02,11.91-1.03l12.12,1.02l-1-6
	C337.87,359.67,326.87,347.44,327.31,345.57z"/>
<g>
	<path class="st5" d="M224.14,254.36l35.33,30.41c2.61,3.41,7.47,4.1,10.92,1.54l0,0c3.62-2.68,4.25-7.85,1.39-11.32l-37.71-30.98
		l-12.49-33.08c1.35-2.3,1.28-5.27-0.4-7.55c-2.25-3.04-6.54-3.68-9.59-1.43s-3.68,6.54-1.43,9.59c0.82,1.11,1.92,1.9,3.12,2.34
		L224.14,254.36L224.14,254.36z"/>
	<path class="st2" d="M224.66,259.43L224.66,259.43c-0.18,1.03,23.39,20.02,24.33,20.47c0.56,0.27,1.04,0.71,1.34,1.26
		c0.06,0.11,0.11,0.22,0.15,0.33c0.53,1.4,1.62,2.48,3.07,2.86c2.33,0.61,4.56,2.45,6.27,4.29c1.87,2.01,3.67,4.16,5.97,5.66
		c3.32,2.17,8.02,2.86,10.91-1.15c1.22-1.7,1.74-3.81,1.61-5.9c-0.27-4.38-2.87-8.05-5.39-11.54l1.67,0.89
		c-2.81-3.75-8.08-4.71-9.19-9.26c-0.73,0.77-2.15,0.06-2.46-0.95c-0.31-1.02-22.94-20.1-22.7-21.13c0.3-1.3,0.31-2.92-1.24-3.47
		c-0.75-0.26-1.58-0.14-2.28,0.23c-6.54,3.5-9.13,5.01-13.71,10.85c-1.02,1.3-2.03,2.81-1.87,4.46
		C221.32,258.98,223.33,260.41,224.66,259.43L224.66,259.43z"/>
</g>
<circle class="st5" cx="300.22" cy="238.93" r="20.71"/>
<g>
	<path class="st6" d="M323.49,229.02c2.9-10.56-28.68-19.62-34.82-11.11c-0.85-1.21-4.01-1.94-5.45-1.57
		c-1.45,0.37-2.66,1.3-3.85,2.2c-1.63,1.25-3.32,2.55-4.33,4.36c-1.01,1.8-1.16,4.24,0.19,5.8c1.08,1.24,2.97,7.82,4.58,8.15
		c1.13,0.23,2.08,0.42,2.89,0.55c0.73-1.06,2.58-2.39,2.45-3.68c1.1,0.73,0.7,2.01,0.48,3.31c-0.74,4.35-17.35,38.06-7.83,28.12
		c0.94,0.56,2.11,1.08,3.45,1.55c2.28-3.44,4.15-7.49,5.38-11.72l0.01,0.08c0.42,3.68,3.11,6.7,6.67,7.73
		c14.28,4.14,25.83-1.93,29.8-12.88c-1.45-2.95-2.09-2.63-1.96-2.72c1.82-1.22,4.31-0.42,5.09,1.62c0.23,0.6,0.44,1.12,0.62,1.51
		C328.94,242.9,331.4,243.97,323.49,229.02L323.49,229.02z"/>
	<path class="st6" d="M313.64,221.35l-1.46-7.46c-0.12-0.63-0.24-1.31,0.04-1.88c0.36-0.74,1.3-1.04,2.11-0.92s1.42,0.86,2.23,1
		c2.81,0.5,6.52-2.28,7.53,4.74c0.42,2.93,5.09,3.24,6.65,5.75s1.75,6.14-0.38,8.19c-1.7,1.64-4.43,1.83-6.64,0.99
		c-2.21-0.84-3.98-2.53-5.53-4.31s-2.95-3.71-4.74-5.26"/>
	<path class="st2" d="M324.6,232.69c-5.7-0.8-9.58-2.87-11.54-6.16c-2.57-4.31-0.85-9.05-0.77-9.25l1.2,0.45
		c-0.02,0.04-1.58,4.39,0.68,8.16c1.75,2.93,5.32,4.79,10.61,5.53L324.6,232.69L324.6,232.69z"/>
</g>
<path class="st3" d="M419.41,175.67V188c20.43,0,36.99,16.56,36.99,36.99c0,9.81-3.9,19.22-10.83,26.15l8.72,8.72
	c19.26-19.26,19.26-50.48,0-69.74C445.04,180.87,432.49,175.67,419.41,175.67z"/>
<path class="st4" d="M454.28,259.86l-8.72-8.72c-13.08,13.08-33.81,14.49-48.53,3.29l-7.46,9.82
	C409.21,279.18,436.85,277.3,454.28,259.86z"/>
<path class="st4" d="M382.43,224.99c0-20.43,16.56-36.99,36.99-36.99l0,0v-12.33c-27.24,0-49.32,22.08-49.32,49.32
	c0,15.41,7.21,29.94,19.48,39.26l7.46-9.82C387.82,247.45,382.42,236.55,382.43,224.99z"/>
<path class="st2" d="M173.52,529.56c-2.56,0.2-3.97-3.74-2.03-6.04l0.19-0.95c-0.03-0.08-0.05-0.15-0.08-0.23
	c-2.58-7.65-11.34-7.6-13.91,0.06c-2.27,6.8-5.17,13.62-5.88,20.81c-0.32,3.17-0.18,6.41,0.39,9.52
	c-5.33-14.46-8.13-30.24-8.13-46.11c0-3.99,0.18-7.98,0.54-11.95c0.3-3.25,0.7-6.49,1.23-9.69c2.85-17.32,9.03-33.82,17.94-47.6
	c4.28-2.91,7.85-7.45,10.01-12.9c0.78-1.96,1.38-4.08,1.67-6.23c-0.49,0.08-1.84-9.14-1.47-9.7c-0.68-1.28-1.89-1.92-2.64-3.16
	c-3.69-6.21-8.77-5.13-11.43,3.31c-5.67,3.55-5.72,9.44-2.25,15.11c2.21,3.6,2.52,8.48,4.46,12.34c-0.2,0.32-0.41,0.63-0.61,0.94
	c-3.66,5.83-6.83,12.1-9.5,18.69c0.75-7.32-0.36-16.14-2.26-21.83c-2.16-6.48-6.22-11.93-9.79-17.53
	c-4.29-6.73-13.08-3.79-13.84,4.74c-0.01,0.08-0.01,0.17-0.02,0.25c0.53,0.37,1.05,0.77,1.56,1.18c2.89,2.38,1.89,7.95-1.54,8.6
	l-0.08,0.01c0.19,2.37,0.52,4.72,1,7.03c-4.58,21.99,5.31,30,19.42,30.36c0.31,0.2,0.62,0.4,0.93,0.59
	c-1.43,5-2.57,10.13-3.42,15.33c-0.76,4.59-1.29,9.24-1.58,13.9c-0.37,5.88-0.34,11.8,0.06,17.67l-0.02-0.21
	c-1.01-6.47-3.84-12.51-7.95-16.7c-6.12-6.24-14.76-8.54-21.36-13.55c-3.18-2.41-7.25,0.71-6.69,5.28c0.01,0.07,0.02,0.15,0.03,0.22
	c0.98,0.5,1.94,1.07,2.87,1.72c0.53,0.37,1.05,0.77,1.56,1.18c2.89,2.38,1.89,7.95-1.54,8.6l-0.08,0.01
	c-0.06,0.01-0.1,0.02-0.16,0.03c1.69,4.97,4.04,9.58,6.98,13.56c2.86,19.2,15.16,21.02,28.32,15.43h0.01
	c1.44,7.78,3.54,15.38,6.24,22.62h22.29c0.08-0.31,0.15-0.63,0.22-0.93c-2.06,0.16-4.14,0.01-6.17-0.46
	c1.65-2.52,3.31-5.06,4.96-7.58c0.04-0.05,0.07-0.1,0.1-0.15c0.84-1.29,1.69-2.57,2.52-3.86l0,0
	C174.66,537.33,174.28,533.39,173.52,529.56L173.52,529.56L173.52,529.56z"/>
<path class="st1" d="M464.02,641.87H95.29c-14.69,0-26.64-21.43-26.64-47.76V94.34c0-26.34,11.95-47.76,26.64-47.76h368.72
	c14.69,0,26.64,21.43,26.64,47.76V594.1C490.65,620.44,478.7,641.87,464.02,641.87L464.02,641.87z M95.29,50.16
	c-13.59,0-24.64,19.82-24.64,44.18V594.1c0,24.36,11.05,44.18,24.64,44.18h368.72c13.59,0,24.64-19.82,24.64-44.18V94.34
	c0-24.36-11.05-44.18-24.64-44.18L95.29,50.16L95.29,50.16z"/>
</svg>
